<?xml version="1.0" encoding="UTF-8"?>
<svg xmlns="http://www.w3.org/2000/svg" xmlns:xlink="http://www.w3.org/1999/xlink" width="48px" height="48px" viewBox="0 0 48 48" version="1.1">
<g id="surface1">
<path style=" stroke:none;fill-rule:evenodd;fill:rgb(98.431373%,98.431373%,98.431373%);fill-opacity:1;" d="M 15.75 14.597656 C 14.71875 14.769531 14.023438 15.839844 14.335938 16.78125 C 14.789062 18.148438 17.117188 18.546875 18.28125 17.457031 C 18.722656 17.042969 18.871094 16.160156 18.589844 15.601562 C 18.164062 14.746094 17.109375 14.371094 15.75 14.597656 M 14.21875 26.53125 L 14.230469 33.097656 L 18.769531 33.121094 L 18.769531 19.96875 L 14.207031 19.96875 L 14.21875 26.53125 M 21.121094 26.511719 L 21.121094 33.054688 L 22.523438 33.089844 C 23.296875 33.105469 24.296875 33.121094 24.75 33.121094 L 25.566406 33.121094 L 25.601562 30.160156 C 25.617188 28.53125 25.632812 26.730469 25.632812 26.160156 L 25.632812 25.117188 L 25.78125 24.835938 C 26.65625 23.191406 28.703125 23.164062 29.554688 24.78125 L 29.6875 25.03125 L 29.710938 29.0625 L 29.734375 33.097656 L 34.246094 33.097656 L 34.246094 28.921875 C 34.246094 25.757812 34.234375 24.621094 34.183594 24.238281 C 33.777344 21.003906 31.019531 19.242188 27.910156 20.242188 C 27.246094 20.457031 26.777344 20.714844 25.75 21.429688 C 25.628906 21.515625 25.609375 21.40625 25.59375 20.683594 L 25.578125 19.96875 L 21.121094 19.96875 L 21.121094 26.511719 "/>
<path style=" stroke:none;fill-rule:evenodd;fill:rgb(20.392157%,20.392157%,23.529412%);fill-opacity:1;" d="M 0 24 L 0 48 L 48 48 L 48 0 L 0 0 L 0 24 M 17.664062 14.640625 C 19.128906 15.421875 19.234375 17.03125 17.867188 17.824219 C 16.660156 18.523438 14.582031 17.992188 14.324219 16.914062 C 14.304688 16.839844 14.269531 16.746094 14.238281 16.710938 C 14.171875 16.628906 14.171875 15.867188 14.242188 15.785156 C 14.269531 15.75 14.308594 15.664062 14.328125 15.601562 C 14.371094 15.457031 14.402344 15.417969 14.75 15.0625 C 15.226562 14.574219 15.484375 14.496094 16.632812 14.511719 C 17.390625 14.523438 17.464844 14.53125 17.664062 14.640625 M 18.816406 26.496094 L 18.816406 33.121094 L 14.160156 33.121094 L 14.160156 19.871094 L 18.816406 19.871094 L 18.816406 26.496094 M 25.679688 20.664062 C 25.691406 21.085938 25.722656 21.40625 25.742188 21.371094 C 25.800781 21.28125 26.671875 20.71875 27.023438 20.542969 C 27.195312 20.460938 27.375 20.367188 27.425781 20.34375 C 27.574219 20.265625 28.183594 20.074219 28.464844 20.015625 C 31.109375 19.464844 33.347656 20.792969 34.0625 23.339844 C 34.101562 23.476562 34.15625 23.667969 34.179688 23.761719 C 34.28125 24.132812 34.332031 25.695312 34.351562 29.316406 L 34.375 33.121094 L 29.675781 33.121094 L 29.640625 29.074219 L 29.609375 25.03125 L 29.445312 24.742188 C 28.578125 23.183594 26.640625 23.300781 25.789062 24.960938 L 25.679688 25.175781 L 25.679688 28.347656 C 25.679688 30.09375 25.664062 31.878906 25.648438 32.320312 L 25.617188 33.121094 L 21.023438 33.121094 L 21.035156 26.53125 L 21.046875 19.945312 L 21.214844 19.914062 C 21.308594 19.898438 22.34375 19.886719 23.519531 19.890625 L 25.65625 19.894531 L 25.679688 20.664062 "/>
<path style=" stroke:none;fill-rule:evenodd;fill:rgb(61.176471%,61.176471%,61.176471%);fill-opacity:1;" d="M 16.355469 14.53125 C 16.46875 14.542969 16.644531 14.542969 16.742188 14.53125 C 16.839844 14.519531 16.746094 14.511719 16.535156 14.511719 C 16.324219 14.511719 16.246094 14.519531 16.355469 14.53125 M 17.101562 14.578125 C 17.144531 14.589844 17.222656 14.589844 17.269531 14.578125 C 17.3125 14.566406 17.277344 14.554688 17.183594 14.554688 C 17.089844 14.554688 17.054688 14.566406 17.101562 14.578125 M 17.902344 14.84375 C 17.902344 14.855469 17.972656 14.914062 18.058594 14.976562 C 18.15625 15.046875 18.191406 15.058594 18.148438 15.007812 C 18.085938 14.929688 17.902344 14.808594 17.902344 14.84375 M 14.757812 15.085938 L 14.617188 15.238281 L 14.773438 15.097656 C 14.917969 14.96875 14.949219 14.929688 14.914062 14.929688 C 14.90625 14.929688 14.835938 15 14.757812 15.085938 M 18.734375 16.296875 C 18.734375 16.480469 18.746094 16.550781 18.753906 16.449219 C 18.765625 16.351562 18.765625 16.199219 18.753906 16.113281 C 18.742188 16.03125 18.734375 16.109375 18.734375 16.296875 M 18.308594 17.4375 L 18.167969 17.59375 L 18.324219 17.449219 C 18.410156 17.375 18.480469 17.304688 18.480469 17.296875 C 18.480469 17.257812 18.441406 17.289062 18.308594 17.4375 M 16.308594 18.082031 C 16.421875 18.09375 16.605469 18.09375 16.714844 18.082031 C 16.828125 18.074219 16.738281 18.066406 16.511719 18.066406 C 16.289062 18.066406 16.195312 18.074219 16.308594 18.082031 M 16.5 19.957031 L 18.769531 19.96875 L 18.78125 26.53125 L 18.792969 33.097656 L 18.792969 19.945312 L 16.511719 19.941406 L 14.230469 19.941406 L 16.5 19.957031 M 23.53125 19.957031 L 25.582031 19.96875 L 25.613281 21.289062 L 25.609375 20.617188 L 25.609375 19.945312 L 23.542969 19.941406 L 21.480469 19.941406 L 23.53125 19.957031 M 29.460938 19.953125 C 29.546875 19.964844 29.675781 19.964844 29.75 19.953125 C 29.820312 19.945312 29.75 19.933594 29.59375 19.933594 C 29.433594 19.933594 29.375 19.945312 29.460938 19.953125 M 21.09375 26.519531 C 21.09375 30.136719 21.101562 31.609375 21.109375 29.792969 C 21.113281 27.976562 21.113281 25.015625 21.109375 23.214844 C 21.101562 21.417969 21.09375 22.902344 21.09375 26.519531 M 34.1875 24.265625 C 34.1875 24.371094 34.199219 24.40625 34.210938 24.347656 C 34.222656 24.289062 34.222656 24.203125 34.210938 24.15625 C 34.195312 24.109375 34.1875 24.160156 34.1875 24.265625 M 34.238281 24.863281 C 34.238281 25.007812 34.246094 25.070312 34.257812 24.996094 C 34.269531 24.921875 34.269531 24.804688 34.257812 24.730469 C 34.246094 24.660156 34.238281 24.71875 34.238281 24.863281 M 25.652344 25.070312 C 25.640625 25.105469 25.636719 25.476562 25.644531 25.898438 L 25.65625 26.664062 L 25.679688 25.835938 C 25.703125 25.023438 25.699219 24.945312 25.652344 25.070312 M 29.683594 26.519531 C 29.683594 27.179688 29.691406 27.457031 29.699219 27.132812 C 29.707031 26.8125 29.707031 26.273438 29.699219 25.933594 C 29.691406 25.597656 29.683594 25.859375 29.683594 26.519531 M 34.273438 29.648438 C 34.257812 31.554688 34.265625 33.097656 34.285156 33.078125 C 34.304688 33.058594 34.316406 31.5 34.308594 29.613281 L 34.296875 26.183594 L 34.273438 29.648438 M 25.605469 31.128906 C 25.605469 32.210938 25.613281 32.660156 25.621094 32.128906 C 25.628906 31.59375 25.628906 30.707031 25.621094 30.160156 C 25.613281 29.609375 25.605469 30.046875 25.605469 31.128906 M 21.949219 33.109375 C 22.15625 33.117188 22.480469 33.117188 22.671875 33.109375 C 22.859375 33.097656 22.691406 33.089844 22.296875 33.089844 C 21.898438 33.089844 21.746094 33.097656 21.949219 33.109375 "/>
<path style=" stroke:none;fill-rule:evenodd;fill:rgb(48.235294%,48.235294%,49.019608%);fill-opacity:1;" d="M 14.183594 26.542969 C 14.183594 30.175781 14.1875 31.660156 14.195312 29.84375 C 14.203125 28.027344 14.203125 25.058594 14.195312 23.242188 C 14.1875 21.429688 14.183594 22.914062 14.183594 26.542969 M 25.652344 29.257812 C 25.652344 29.652344 25.660156 29.808594 25.667969 29.601562 C 25.675781 29.394531 25.675781 29.070312 25.667969 28.882812 C 25.660156 28.691406 25.652344 28.859375 25.652344 29.257812 M 29.683594 29.257812 C 29.683594 29.652344 29.691406 29.808594 29.699219 29.601562 C 29.707031 29.394531 29.707031 29.070312 29.699219 28.882812 C 29.691406 28.691406 29.683594 28.859375 29.683594 29.257812 "/>
<path style=" stroke:none;fill-rule:evenodd;fill:rgb(58.039216%,58.039216%,58.039216%);fill-opacity:1;" d="M 25.648438 27 C 25.648438 27.210938 25.65625 27.292969 25.667969 27.179688 C 25.675781 27.066406 25.675781 26.894531 25.667969 26.792969 C 25.65625 26.695312 25.648438 26.789062 25.648438 27 M 29.675781 27.863281 C 29.675781 27.96875 29.6875 28.007812 29.699219 27.949219 C 29.710938 27.886719 29.710938 27.800781 29.695312 27.753906 C 29.683594 27.710938 29.675781 27.757812 29.675781 27.863281 "/>
<path style=" stroke:none;fill-rule:evenodd;fill:rgb(54.901961%,54.901961%,58.039216%);fill-opacity:1;" d="M 25.652344 27.960938 C 25.652344 28.304688 25.660156 28.4375 25.667969 28.257812 C 25.675781 28.078125 25.675781 27.796875 25.667969 27.632812 C 25.65625 27.46875 25.652344 27.617188 25.652344 27.960938 M 29.679688 28.296875 C 29.679688 28.453125 29.6875 28.511719 29.699219 28.425781 C 29.710938 28.339844 29.710938 28.210938 29.699219 28.140625 C 29.6875 28.066406 29.679688 28.136719 29.679688 28.296875 M 21.132812 33.105469 C 21.179688 33.117188 21.253906 33.117188 21.300781 33.105469 C 21.347656 33.09375 21.308594 33.082031 21.214844 33.082031 C 21.125 33.082031 21.085938 33.09375 21.132812 33.105469 "/>
<path style=" stroke:none;fill-rule:evenodd;fill:rgb(39.215686%,39.215686%,40%);fill-opacity:1;" d="M 14.191406 19.90625 C 14.171875 19.941406 15.886719 19.941406 17.976562 19.90625 C 18.425781 19.898438 17.761719 19.890625 16.503906 19.882812 C 15.242188 19.875 14.203125 19.886719 14.191406 19.90625 M 22.671875 19.90625 C 23.222656 19.914062 24.105469 19.914062 24.640625 19.90625 C 25.171875 19.898438 24.722656 19.894531 23.640625 19.894531 C 22.558594 19.894531 22.121094 19.898438 22.671875 19.90625 M 29.632812 25.65625 C 29.632812 26 29.640625 26.132812 29.652344 25.953125 C 29.660156 25.773438 29.660156 25.492188 29.652344 25.328125 C 29.640625 25.167969 29.632812 25.3125 29.632812 25.65625 M 25.648438 30.335938 C 25.648438 30.558594 25.65625 30.652344 25.667969 30.539062 C 25.675781 30.429688 25.675781 30.246094 25.667969 30.132812 C 25.65625 30.019531 25.648438 30.113281 25.648438 30.335938 M 29.683594 30.625 C 29.683594 31.007812 29.691406 31.164062 29.699219 30.972656 C 29.707031 30.78125 29.707031 30.46875 29.699219 30.277344 C 29.691406 30.085938 29.683594 30.242188 29.683594 30.625 "/>
<path style=" stroke:none;fill-rule:evenodd;fill:rgb(34.509804%,34.509804%,35.294118%);fill-opacity:1;" d="M 16.308594 18.132812 C 16.421875 18.140625 16.59375 18.140625 16.691406 18.132812 C 16.792969 18.121094 16.699219 18.113281 16.488281 18.113281 C 16.277344 18.113281 16.195312 18.121094 16.308594 18.132812 M 25.632812 20.558594 L 25.65625 21.238281 L 25.667969 20.597656 C 25.675781 20.242188 25.667969 19.933594 25.644531 19.914062 C 25.625 19.894531 25.617188 20.183594 25.632812 20.558594 M 29.796875 19.90625 C 29.855469 19.917969 29.941406 19.917969 29.988281 19.90625 C 30.035156 19.894531 29.984375 19.882812 29.878906 19.882812 C 29.773438 19.882812 29.738281 19.894531 29.796875 19.90625 M 34.34375 29.519531 C 34.34375 31.511719 34.347656 32.328125 34.355469 31.332031 C 34.363281 30.335938 34.363281 28.703125 34.355469 27.707031 C 34.347656 26.710938 34.34375 27.527344 34.34375 29.519531 M 29.636719 27.886719 C 29.636719 28.480469 29.644531 28.726562 29.652344 28.429688 C 29.660156 28.132812 29.660156 27.644531 29.652344 27.347656 C 29.644531 27.050781 29.636719 27.292969 29.636719 27.886719 M 25.648438 31.535156 C 25.648438 31.839844 25.65625 31.964844 25.667969 31.8125 C 25.675781 31.660156 25.675781 31.410156 25.667969 31.261719 C 25.65625 31.109375 25.648438 31.230469 25.648438 31.535156 M 29.683594 32.449219 C 29.683594 32.832031 29.691406 32.988281 29.699219 32.796875 C 29.707031 32.605469 29.707031 32.292969 29.699219 32.101562 C 29.691406 31.910156 29.683594 32.066406 29.683594 32.449219 "/>
<path style=" stroke:none;fill-rule:evenodd;fill:rgb(36.078431%,36.078431%,39.215686%);fill-opacity:1;" d="M 21.046875 26.519531 C 21.046875 30.136719 21.054688 31.609375 21.058594 29.792969 C 21.066406 27.976562 21.066406 25.015625 21.058594 23.214844 C 21.054688 21.417969 21.046875 22.902344 21.046875 26.519531 M 29.632812 26.542969 C 29.632812 26.714844 29.640625 26.785156 29.652344 26.699219 C 29.660156 26.613281 29.660156 26.472656 29.652344 26.386719 C 29.640625 26.300781 29.632812 26.371094 29.632812 26.542969 M 25.644531 30.863281 C 25.644531 30.957031 25.652344 30.996094 25.664062 30.949219 C 25.675781 30.902344 25.675781 30.828125 25.664062 30.78125 C 25.652344 30.734375 25.644531 30.773438 25.644531 30.863281 M 29.679688 31.535156 C 29.679688 31.679688 29.6875 31.742188 29.699219 31.667969 C 29.710938 31.59375 29.710938 31.476562 29.699219 31.402344 C 29.6875 31.332031 29.679688 31.390625 29.679688 31.535156 "/>
</g>
</svg>
