<svg width="48" height="48" viewBox="0 0 48 48" fill="none" xmlns="http://www.w3.org/2000/svg">
<rect width="48" height="48" fill="#323238"/>
<path d="M31.4856 22.5248C27.134 20.0361 19.9562 19.8073 15.802 21.0214C15.1347 21.2163 14.4294 20.8538 14.2273 20.2114C14.0252 19.5686 14.4013 18.8897 15.0688 18.6944C19.8377 17.3006 27.7648 17.5697 32.7745 20.4334C33.3747 20.7765 33.5713 21.5227 33.2157 22.0994C32.8597 22.6773 32.0842 22.8679 31.4856 22.5248ZM31.3431 26.2106C31.0378 26.6877 30.39 26.8373 29.8953 26.5444C26.2675 24.397 20.7353 23.7748 16.4431 25.0294C15.8866 25.1913 15.2987 24.8893 15.1296 24.3542C15.0491 24.0969 15.0777 23.8194 15.2093 23.5825C15.3408 23.3456 15.5646 23.1685 15.8315 23.0902C20.7345 21.6574 26.83 22.3513 30.9968 24.8172C31.4916 25.1106 31.6473 25.7346 31.3431 26.2106ZM29.6912 29.7504C29.6337 29.8414 29.5581 29.9205 29.4688 29.9833C29.3795 30.0461 29.2783 30.0913 29.1708 30.1164C29.0633 30.1414 28.9518 30.1458 28.8426 30.1293C28.7333 30.1128 28.6286 30.0757 28.5342 30.0201C25.3641 28.1543 21.3739 27.733 16.6747 28.7666C16.567 28.7903 16.4555 28.7934 16.3466 28.7756C16.2377 28.7578 16.1335 28.7196 16.04 28.663C15.9465 28.6064 15.8654 28.5327 15.8015 28.4459C15.7376 28.3592 15.692 28.2612 15.6674 28.1575C15.6427 28.0538 15.6394 27.9464 15.6578 27.8414C15.6762 27.7365 15.7159 27.6361 15.7747 27.5459C15.8335 27.4558 15.9102 27.3777 16.0003 27.3162C16.0905 27.2546 16.1923 27.2108 16.3001 27.1872C21.4426 26.0553 25.8537 26.5424 29.412 28.6362C29.5063 28.6917 29.5884 28.7646 29.6535 28.8506C29.7186 28.9366 29.7654 29.0342 29.7914 29.1376C29.8173 29.2411 29.8218 29.3485 29.8046 29.4536C29.7875 29.5588 29.7488 29.6596 29.6912 29.7504ZM23.4998 11C16.0443 11 10 16.8202 10 23.9998C10 31.1801 16.0443 37 23.4999 37C30.9558 37 37 31.1801 37 23.9998C37 16.8203 30.9558 11 23.4998 11Z" fill="white"/>
</svg>
